<mxfile host="app.diagrams.net" modified="2023-03-23T13:35:08.047Z" agent="5.0 (Windows NT 10.0; Win64; x64) AppleWebKit/537.36 (KHTML, like Gecko) Chrome/111.0.0.0 Safari/537.36" etag="UeAZXShZe-RwthpuxMqd" version="21.0.10" type="github">
  <diagram name="Page-1" id="c9db0220-8083-56f3-ca83-edcdcd058819">
    <mxGraphModel dx="1434" dy="796" grid="1" gridSize="10" guides="1" tooltips="1" connect="1" arrows="1" fold="1" page="1" pageScale="1.5" pageWidth="826" pageHeight="1169" background="none" math="0" shadow="0">
      <root>
        <mxCell id="0" style=";html=1;" />
        <mxCell id="1" style=";html=1;" parent="0" />
        <mxCell id="3d76a8aef4d5c911-1" value="" style="html=1;shadow=0;dashed=0;shape=mxgraph.bootstrap.rect;fillColor=#222222;strokeColor=none;whiteSpace=wrap;rounded=0;fontSize=12;fontColor=#000000;align=center;" parent="1" vertex="1">
          <mxGeometry x="30" width="1150" height="120" as="geometry" />
        </mxCell>
        <mxCell id="3d76a8aef4d5c911-2" value="Company" style="html=1;shadow=0;dashed=0;fillColor=none;strokeColor=none;shape=mxgraph.bootstrap.rect;fontColor=#999999;fontSize=14;whiteSpace=wrap;" parent="3d76a8aef4d5c911-1" vertex="1">
          <mxGeometry width="115" height="40" as="geometry" />
        </mxCell>
        <mxCell id="3d76a8aef4d5c911-3" value="Livros" style="html=1;shadow=0;dashed=0;shape=mxgraph.bootstrap.rect;fillColor=#000000;strokeColor=none;fontColor=#ffffff;spacingRight=30;whiteSpace=wrap;" parent="3d76a8aef4d5c911-1" vertex="1">
          <mxGeometry x="115" width="129.375" height="40" as="geometry" />
        </mxCell>
        <mxCell id="3d76a8aef4d5c911-4" value="84" style="html=1;shadow=0;dashed=0;shape=mxgraph.bootstrap.rrect;rSize=8;fillColor=#ff0000;strokeColor=none;fontColor=#ffffff;whiteSpace=wrap;" parent="3d76a8aef4d5c911-3" vertex="1">
          <mxGeometry x="1" y="0.5" width="25" height="16" relative="1" as="geometry">
            <mxPoint x="-30" y="-8" as="offset" />
          </mxGeometry>
        </mxCell>
        <mxCell id="3d76a8aef4d5c911-5" value="Gêneros" style="html=1;shadow=0;dashed=0;fillColor=none;strokeColor=none;shape=mxgraph.bootstrap.rect;fontColor=#999999;spacingRight=30;whiteSpace=wrap;" parent="3d76a8aef4d5c911-1" vertex="1">
          <mxGeometry x="244.375" width="158.125" height="40" as="geometry" />
        </mxCell>
        <mxCell id="3d76a8aef4d5c911-6" value="42" style="html=1;shadow=0;dashed=0;shape=mxgraph.bootstrap.rrect;rSize=8;fillColor=#ff0000;strokeColor=none;fontColor=#ffffff;whiteSpace=wrap;" parent="3d76a8aef4d5c911-5" vertex="1">
          <mxGeometry x="1" y="0.5" width="25" height="16" relative="1" as="geometry">
            <mxPoint x="-30" y="-8" as="offset" />
          </mxGeometry>
        </mxCell>
        <mxCell id="3d76a8aef4d5c911-7" value="Mais acessados" style="html=1;shadow=0;dashed=0;fillColor=none;strokeColor=none;shape=mxgraph.bootstrap.rect;fontColor=#999999;whiteSpace=wrap;" parent="3d76a8aef4d5c911-1" vertex="1">
          <mxGeometry x="402.5" width="115" height="40" as="geometry" />
        </mxCell>
        <mxCell id="3d76a8aef4d5c911-8" value="Configurações" style="html=1;shadow=0;dashed=0;fillColor=none;strokeColor=none;shape=mxgraph.bootstrap.rect;fontColor=#999999;whiteSpace=wrap;" parent="3d76a8aef4d5c911-1" vertex="1">
          <mxGeometry x="517.5" width="100.625" height="40" as="geometry" />
        </mxCell>
        <mxCell id="3d76a8aef4d5c911-9" value="&lt;font color=&quot;#ffffff&quot;&gt;perfil&lt;/font&gt;" style="html=1;shadow=0;dashed=0;fillColor=none;strokeColor=none;shape=mxgraph.bootstrap.rect;fontColor=#999999;whiteSpace=wrap;" parent="3d76a8aef4d5c911-1" vertex="1">
          <mxGeometry x="948.75" width="100.625" height="40" as="geometry" />
        </mxCell>
        <mxCell id="3d76a8aef4d5c911-10" value="&lt;font color=&quot;#ffffff&quot;&gt;Log Out&lt;/font&gt;" style="html=1;shadow=0;dashed=0;fillColor=none;strokeColor=none;shape=mxgraph.bootstrap.rect;fontColor=#999999;whiteSpace=wrap;" parent="3d76a8aef4d5c911-1" vertex="1">
          <mxGeometry x="1049.375" width="100.625" height="40" as="geometry" />
        </mxCell>
        <mxCell id="3d76a8aef4d5c911-17" value="Pesquisa" style="html=1;shadow=0;dashed=0;shape=mxgraph.bootstrap.rect;strokeColor=none;fillColor=none;fontColor=#999999;align=left;spacingLeft=5;whiteSpace=wrap;rounded=0;" parent="3d76a8aef4d5c911-1" vertex="1">
          <mxGeometry x="10" y="50" width="200" height="20" as="geometry" />
        </mxCell>
        <mxCell id="3d76a8aef4d5c911-18" value="&lt;font color=&quot;#b3b3b3&quot;&gt;Nome do livro&lt;/font&gt;" style="html=1;shadow=0;dashed=0;shape=mxgraph.bootstrap.rrect;rSize=5;strokeColor=#dddddd;;align=left;spacingLeft=10;fontSize=16;whiteSpace=wrap;rounded=0;" parent="3d76a8aef4d5c911-1" vertex="1">
          <mxGeometry x="10" y="70" width="800" height="40" as="geometry" />
        </mxCell>
        <mxCell id="3d76a8aef4d5c911-11" value="" style="html=1;shadow=0;dashed=0;shape=mxgraph.bootstrap.rrect;rSize=5;strokeColor=#dddddd;rounded=0;fontSize=12;align=center;" parent="1" vertex="1">
          <mxGeometry x="870" y="200" width="330" height="400" as="geometry" />
        </mxCell>
        <mxCell id="3d76a8aef4d5c911-12" value="320x200" style="shape=rect;fontSize=24;fillColor=#f0f0f0;strokeColor=none;fontColor=#999999;whiteSpace=wrap;" parent="3d76a8aef4d5c911-11" vertex="1">
          <mxGeometry x="5" y="5" width="320" height="200" as="geometry" />
        </mxCell>
        <mxCell id="3d76a8aef4d5c911-13" value="Thumbnail label" style="html=1;shadow=0;dashed=0;shape=mxgraph.bootstrap.anchor;fontSize=26;align=left;whiteSpace=wrap;" parent="3d76a8aef4d5c911-11" vertex="1">
          <mxGeometry x="15" y="220" width="300" height="40" as="geometry" />
        </mxCell>
        <mxCell id="3d76a8aef4d5c911-14" value="Cras justo odio, dapibus ac facilisis in, egestas eget quam. Donec id elit non mi porta gravida at eget metus. Nullam id dolor id nibh ultricies vehicula ut id elit." style="html=1;shadow=0;dashed=0;shape=mxgraph.bootstrap.anchor;strokeColor=#dddddd;whiteSpace=wrap;align=left;verticalAlign=top;fontSize=14;whiteSpace=wrap;" parent="3d76a8aef4d5c911-11" vertex="1">
          <mxGeometry x="15" y="260" width="300" height="80" as="geometry" />
        </mxCell>
        <mxCell id="3d76a8aef4d5c911-15" value="Button" style="html=1;shadow=0;dashed=0;shape=mxgraph.bootstrap.rrect;rSize=5;fontSize=16;fillColor=#3D8BCD;strokeColor=none;fontColor=#ffffff;whiteSpace=wrap;" parent="3d76a8aef4d5c911-11" vertex="1">
          <mxGeometry y="1" width="80" height="40" relative="1" as="geometry">
            <mxPoint x="15" y="-60" as="offset" />
          </mxGeometry>
        </mxCell>
        <mxCell id="3d76a8aef4d5c911-16" value="Button" style="html=1;shadow=0;dashed=0;shape=mxgraph.bootstrap.rrect;rSize=5;fontSize=16;strokeColor=#dddddd;whiteSpace=wrap;" parent="3d76a8aef4d5c911-11" vertex="1">
          <mxGeometry y="1" width="80" height="40" relative="1" as="geometry">
            <mxPoint x="100" y="-60" as="offset" />
          </mxGeometry>
        </mxCell>
        <mxCell id="3d76a8aef4d5c911-19" value="Gênero" style="html=1;shadow=0;dashed=0;shape=mxgraph.bootstrap.rect;strokeColor=none;fillColor=none;fontColor=#999999;align=left;spacingLeft=5;whiteSpace=wrap;rounded=0;" parent="1" vertex="1">
          <mxGeometry x="40" y="120" width="200" height="20" as="geometry" />
        </mxCell>
        <mxCell id="3d76a8aef4d5c911-32" value="ex : Fantasia" style="html=1;shadow=0;dashed=0;shape=mxgraph.bootstrap.rrect;rSize=5;strokeColor=#dddddd;align=left;spacingLeft=10;fontSize=16;whiteSpace=wrap;rounded=0;" parent="1" vertex="1">
          <mxGeometry x="40" y="140" width="750" height="40" as="geometry" />
        </mxCell>
        <mxCell id="3d76a8aef4d5c911-54" value="" style="html=1;shadow=0;dashed=0;shape=mxgraph.bootstrap.rrect;rSize=5;strokeColor=#dddddd;rounded=0;fontSize=12;align=center;" parent="1" vertex="1">
          <mxGeometry x="870" y="630" width="330" height="400" as="geometry" />
        </mxCell>
        <mxCell id="3d76a8aef4d5c911-55" value="320x200" style="shape=rect;fontSize=24;fillColor=#f0f0f0;strokeColor=none;fontColor=#999999;whiteSpace=wrap;" parent="3d76a8aef4d5c911-54" vertex="1">
          <mxGeometry x="5" y="5" width="320" height="200" as="geometry" />
        </mxCell>
        <mxCell id="3d76a8aef4d5c911-56" value="Thumbnail label" style="html=1;shadow=0;dashed=0;shape=mxgraph.bootstrap.anchor;fontSize=26;align=left;whiteSpace=wrap;" parent="3d76a8aef4d5c911-54" vertex="1">
          <mxGeometry x="15" y="220" width="300" height="40" as="geometry" />
        </mxCell>
        <mxCell id="3d76a8aef4d5c911-57" value="Cras justo odio, dapibus ac facilisis in, egestas eget quam. Donec id elit non mi porta gravida at eget metus. Nullam id dolor id nibh ultricies vehicula ut id elit." style="html=1;shadow=0;dashed=0;shape=mxgraph.bootstrap.anchor;strokeColor=#dddddd;whiteSpace=wrap;align=left;verticalAlign=top;fontSize=14;whiteSpace=wrap;" parent="3d76a8aef4d5c911-54" vertex="1">
          <mxGeometry x="15" y="260" width="300" height="80" as="geometry" />
        </mxCell>
        <mxCell id="3d76a8aef4d5c911-58" value="Button" style="html=1;shadow=0;dashed=0;shape=mxgraph.bootstrap.rrect;rSize=5;fontSize=16;fillColor=#3D8BCD;strokeColor=none;fontColor=#ffffff;whiteSpace=wrap;" parent="3d76a8aef4d5c911-54" vertex="1">
          <mxGeometry y="1" width="80" height="40" relative="1" as="geometry">
            <mxPoint x="15" y="-60" as="offset" />
          </mxGeometry>
        </mxCell>
        <mxCell id="3d76a8aef4d5c911-59" value="Button" style="html=1;shadow=0;dashed=0;shape=mxgraph.bootstrap.rrect;rSize=5;fontSize=16;strokeColor=#dddddd;whiteSpace=wrap;" parent="3d76a8aef4d5c911-54" vertex="1">
          <mxGeometry y="1" width="80" height="40" relative="1" as="geometry">
            <mxPoint x="100" y="-60" as="offset" />
          </mxGeometry>
        </mxCell>
        <mxCell id="3d76a8aef4d5c911-27" value="Fantasia;&lt;br&gt;Terror;&lt;br&gt;finanças;&lt;br&gt;" style="html=1;shadow=0;dashed=0;shape=mxgraph.bootstrap.rrect;fontSize=12;rSize=2;strokeColor=#dddddd;align=left;verticalAlign=top;spacing=10;shadow=1;whiteSpace=wrap;rounded=0;" parent="1" vertex="1">
          <mxGeometry x="1200" y="410" width="240" height="140" as="geometry" />
        </mxCell>
        <mxCell id="qRd3rTgJZ0pR7CgGZvh7-9" value="Filtro" style="html=1;shadow=0;dashed=0;shape=mxgraph.bootstrap.rrect;rSize=5;strokeColor=none;strokeWidth=1;fillColor=#7F00FF;fontColor=#ffffff;whiteSpace=wrap;align=left;verticalAlign=middle;fontStyle=0;fontSize=14;spacingLeft=10;" vertex="1" parent="1">
          <mxGeometry x="780" y="140" width="60" height="40" as="geometry" />
        </mxCell>
        <mxCell id="qRd3rTgJZ0pR7CgGZvh7-10" value="" style="shape=triangle;direction=south;fillColor=#ffffff;strokeColor=none;perimeter=none;" vertex="1" parent="qRd3rTgJZ0pR7CgGZvh7-9">
          <mxGeometry x="1" y="0.5" width="10" height="5" relative="1" as="geometry">
            <mxPoint x="-17" y="-2.5" as="offset" />
          </mxGeometry>
        </mxCell>
        <mxCell id="qRd3rTgJZ0pR7CgGZvh7-27" value="Resultados" style="html=1;shadow=0;dashed=0;shape=mxgraph.bootstrap.rect;strokeColor=none;fillColor=none;fontColor=#999999;align=left;spacingLeft=5;whiteSpace=wrap;rounded=0;" vertex="1" parent="1">
          <mxGeometry x="50" y="350" width="200" height="20" as="geometry" />
        </mxCell>
        <mxCell id="qRd3rTgJZ0pR7CgGZvh7-32" value="Fantasia;" style="html=1;shadow=0;dashed=0;shape=mxgraph.bootstrap.rrect;rSize=5;strokeColor=#D6D8DB;strokeWidth=1;fillColor=#E2E3E5;fontColor=#383D41;whiteSpace=wrap;align=left;verticalAlign=middle;spacingLeft=10;" vertex="1" parent="1">
          <mxGeometry x="40" y="180" width="800" height="40" as="geometry" />
        </mxCell>
        <mxCell id="qRd3rTgJZ0pR7CgGZvh7-33" value="Terror;" style="html=1;shadow=0;dashed=0;shape=mxgraph.bootstrap.rrect;rSize=5;strokeColor=#D6D8DB;strokeWidth=1;fillColor=#E2E3E5;fontColor=#383D41;whiteSpace=wrap;align=left;verticalAlign=middle;spacingLeft=10;" vertex="1" parent="1">
          <mxGeometry x="40" y="220" width="800" height="40" as="geometry" />
        </mxCell>
        <mxCell id="qRd3rTgJZ0pR7CgGZvh7-34" value="finanças" style="html=1;shadow=0;dashed=0;shape=mxgraph.bootstrap.rrect;rSize=5;strokeColor=#D6D8DB;strokeWidth=1;fillColor=#E2E3E5;fontColor=#383D41;whiteSpace=wrap;align=left;verticalAlign=middle;spacingLeft=10;" vertex="1" parent="1">
          <mxGeometry x="40" y="260" width="800" height="40" as="geometry" />
        </mxCell>
        <mxCell id="qRd3rTgJZ0pR7CgGZvh7-37" value="" style="html=1;shadow=0;dashed=0;shape=mxgraph.bootstrap.rrect;rSize=5;strokeColor=#DEE2E6;html=1;whiteSpace=wrap;fillColor=#ffffff;fontColor=#0085FC;" vertex="1" parent="1">
          <mxGeometry x="380" y="1090" width="120" height="40" as="geometry" />
        </mxCell>
        <mxCell id="qRd3rTgJZ0pR7CgGZvh7-38" value="1" style="strokeColor=inherit;fillColor=inherit;gradientColor=inherit;html=1;shadow=0;dashed=0;shape=mxgraph.bootstrap.leftButton;rSize=5;perimeter=none;whiteSpace=wrap;resizeHeight=1;fillColor=#0085FC;strokeColor=none;fontColor=#ffffff;fontSize=16;" vertex="1" parent="qRd3rTgJZ0pR7CgGZvh7-37">
          <mxGeometry width="40" height="40" relative="1" as="geometry" />
        </mxCell>
        <mxCell id="qRd3rTgJZ0pR7CgGZvh7-39" value="2" style="strokeColor=inherit;fillColor=inherit;gradientColor=inherit;fontColor=inherit;html=1;shadow=0;dashed=0;perimeter=none;whiteSpace=wrap;resizeHeight=1;fontSize=16;" vertex="1" parent="qRd3rTgJZ0pR7CgGZvh7-37">
          <mxGeometry width="40" height="40" relative="1" as="geometry">
            <mxPoint x="40" as="offset" />
          </mxGeometry>
        </mxCell>
        <mxCell id="qRd3rTgJZ0pR7CgGZvh7-40" value="3" style="strokeColor=inherit;fillColor=inherit;gradientColor=inherit;fontColor=inherit;html=1;shadow=0;dashed=0;shape=mxgraph.bootstrap.rightButton;rSize=5;perimeter=none;whiteSpace=wrap;resizeHeight=1;fontSize=16;" vertex="1" parent="qRd3rTgJZ0pR7CgGZvh7-37">
          <mxGeometry x="1" width="40" height="40" relative="1" as="geometry">
            <mxPoint x="-40" as="offset" />
          </mxGeometry>
        </mxCell>
        <mxCell id="qRd3rTgJZ0pR7CgGZvh7-43" value="" style="html=1;shadow=0;dashed=0;shape=mxgraph.bootstrap.rrect;rSize=5;strokeColor=#DFDFDF;html=1;whiteSpace=wrap;fillColor=#ffffff;fontColor=#000000;verticalAlign=bottom;align=left;spacing=20;fontSize=14;" vertex="1" parent="1">
          <mxGeometry x="40" y="380" width="250" height="180" as="geometry" />
        </mxCell>
        <mxCell id="qRd3rTgJZ0pR7CgGZvh7-47" value="" style="group" vertex="1" connectable="0" parent="qRd3rTgJZ0pR7CgGZvh7-43">
          <mxGeometry width="250" height="180" as="geometry" />
        </mxCell>
        <mxCell id="qRd3rTgJZ0pR7CgGZvh7-44" value="Image cap" style="html=1;shadow=0;dashed=0;shape=mxgraph.bootstrap.topButton;rSize=5;perimeter=none;whiteSpace=wrap;fillColor=#868E96;strokeColor=#DFDFDF;fontColor=#DEE2E6;resizeWidth=1;fontSize=18;" vertex="1" parent="qRd3rTgJZ0pR7CgGZvh7-47">
          <mxGeometry width="250" height="180" relative="1" as="geometry">
            <mxPoint as="offset" />
          </mxGeometry>
        </mxCell>
        <mxCell id="qRd3rTgJZ0pR7CgGZvh7-35" value="Acessar" style="rounded=1;whiteSpace=wrap;html=1;arcSize=25;strokeColor=none;strokeWidth=1;fillColor=#DB2843;fontColor=#FFFFFF;whiteSpace=wrap;align=left;verticalAlign=middle;spacingLeft=0;fontStyle=1;fontSize=14;spacing=10;" vertex="1" parent="qRd3rTgJZ0pR7CgGZvh7-47">
          <mxGeometry x="87.5" y="140" width="72.5" height="20" as="geometry" />
        </mxCell>
        <mxCell id="qRd3rTgJZ0pR7CgGZvh7-45" value="Sinopse:&lt;br&gt;Gênero:&lt;br&gt;Data de publicação:" style="html=1;shadow=0;dashed=0;shape=mxgraph.bootstrap.rrect;rSize=5;strokeColor=#FDFDFE;strokeWidth=1;fillColor=#FEFEFE;fontColor=#818182;whiteSpace=wrap;align=left;verticalAlign=middle;spacingLeft=10;" vertex="1" parent="1">
          <mxGeometry x="270" y="380" width="540" height="180" as="geometry" />
        </mxCell>
        <mxCell id="qRd3rTgJZ0pR7CgGZvh7-53" value="" style="group" vertex="1" connectable="0" parent="1">
          <mxGeometry x="40" y="610" width="770" height="180" as="geometry" />
        </mxCell>
        <mxCell id="qRd3rTgJZ0pR7CgGZvh7-48" value="" style="html=1;shadow=0;dashed=0;shape=mxgraph.bootstrap.rrect;rSize=5;strokeColor=#DFDFDF;html=1;whiteSpace=wrap;fillColor=#ffffff;fontColor=#000000;verticalAlign=bottom;align=left;spacing=20;fontSize=14;" vertex="1" parent="qRd3rTgJZ0pR7CgGZvh7-53">
          <mxGeometry width="250" height="180" as="geometry" />
        </mxCell>
        <mxCell id="qRd3rTgJZ0pR7CgGZvh7-49" value="" style="group" vertex="1" connectable="0" parent="qRd3rTgJZ0pR7CgGZvh7-48">
          <mxGeometry width="250" height="180" as="geometry" />
        </mxCell>
        <mxCell id="qRd3rTgJZ0pR7CgGZvh7-50" value="Image cap" style="html=1;shadow=0;dashed=0;shape=mxgraph.bootstrap.topButton;rSize=5;perimeter=none;whiteSpace=wrap;fillColor=#868E96;strokeColor=#DFDFDF;fontColor=#DEE2E6;resizeWidth=1;fontSize=18;" vertex="1" parent="qRd3rTgJZ0pR7CgGZvh7-49">
          <mxGeometry width="250" height="180" relative="1" as="geometry">
            <mxPoint as="offset" />
          </mxGeometry>
        </mxCell>
        <mxCell id="qRd3rTgJZ0pR7CgGZvh7-51" value="Acessar" style="rounded=1;whiteSpace=wrap;html=1;arcSize=25;strokeColor=none;strokeWidth=1;fillColor=#DB2843;fontColor=#FFFFFF;whiteSpace=wrap;align=left;verticalAlign=middle;spacingLeft=0;fontStyle=1;fontSize=14;spacing=10;" vertex="1" parent="qRd3rTgJZ0pR7CgGZvh7-49">
          <mxGeometry x="87.5" y="140" width="72.5" height="20" as="geometry" />
        </mxCell>
        <mxCell id="qRd3rTgJZ0pR7CgGZvh7-52" value="Sinopse:&lt;br&gt;Gênero:&lt;br&gt;Data de publicação:" style="html=1;shadow=0;dashed=0;shape=mxgraph.bootstrap.rrect;rSize=5;strokeColor=#FDFDFE;strokeWidth=1;fillColor=#FEFEFE;fontColor=#818182;whiteSpace=wrap;align=left;verticalAlign=middle;spacingLeft=10;" vertex="1" parent="qRd3rTgJZ0pR7CgGZvh7-53">
          <mxGeometry x="230" width="540" height="180" as="geometry" />
        </mxCell>
        <mxCell id="qRd3rTgJZ0pR7CgGZvh7-54" value="" style="html=1;shadow=0;dashed=0;shape=mxgraph.bootstrap.rrect;rSize=5;strokeColor=#DFDFDF;html=1;whiteSpace=wrap;fillColor=#ffffff;fontColor=#000000;verticalAlign=bottom;align=left;spacing=20;fontSize=14;" vertex="1" parent="1">
          <mxGeometry x="40" y="850" width="250" height="180" as="geometry" />
        </mxCell>
        <mxCell id="qRd3rTgJZ0pR7CgGZvh7-55" value="" style="group" vertex="1" connectable="0" parent="qRd3rTgJZ0pR7CgGZvh7-54">
          <mxGeometry width="250" height="180" as="geometry" />
        </mxCell>
        <mxCell id="qRd3rTgJZ0pR7CgGZvh7-56" value="Image cap" style="html=1;shadow=0;dashed=0;shape=mxgraph.bootstrap.topButton;rSize=5;perimeter=none;whiteSpace=wrap;fillColor=#868E96;strokeColor=#DFDFDF;fontColor=#DEE2E6;resizeWidth=1;fontSize=18;" vertex="1" parent="qRd3rTgJZ0pR7CgGZvh7-55">
          <mxGeometry width="250" height="180" relative="1" as="geometry">
            <mxPoint as="offset" />
          </mxGeometry>
        </mxCell>
        <mxCell id="qRd3rTgJZ0pR7CgGZvh7-57" value="Acessar" style="rounded=1;whiteSpace=wrap;html=1;arcSize=25;strokeColor=none;strokeWidth=1;fillColor=#DB2843;fontColor=#FFFFFF;whiteSpace=wrap;align=left;verticalAlign=middle;spacingLeft=0;fontStyle=1;fontSize=14;spacing=10;" vertex="1" parent="qRd3rTgJZ0pR7CgGZvh7-55">
          <mxGeometry x="87.5" y="140" width="72.5" height="20" as="geometry" />
        </mxCell>
        <mxCell id="qRd3rTgJZ0pR7CgGZvh7-58" value="Sinopse:&lt;br&gt;Gênero:&lt;br&gt;Data de publicação:" style="html=1;shadow=0;dashed=0;shape=mxgraph.bootstrap.rrect;rSize=5;strokeColor=#FDFDFE;strokeWidth=1;fillColor=#FEFEFE;fontColor=#818182;whiteSpace=wrap;align=left;verticalAlign=middle;spacingLeft=10;" vertex="1" parent="1">
          <mxGeometry x="270" y="850" width="540" height="180" as="geometry" />
        </mxCell>
        <mxCell id="qRd3rTgJZ0pR7CgGZvh7-59" value="Destaques:" style="html=1;shadow=0;dashed=0;shape=mxgraph.bootstrap.rect;strokeColor=none;fillColor=none;fontColor=#999999;align=left;spacingLeft=5;whiteSpace=wrap;rounded=0;" vertex="1" parent="1">
          <mxGeometry x="880" y="170" width="200" height="20" as="geometry" />
        </mxCell>
      </root>
    </mxGraphModel>
  </diagram>
</mxfile>
